<svg xmlns="http://www.w3.org/2000/svg" version="1.1" xmlns:xlink="http://www.w3.org/1999/xlink" width="1500" height="1500" viewBox="0 0 1500 1500"><rect width="1500" height="1500" x="0" y="0" id="background" stroke="transparent" fill="#ffffff"></rect><svg xml:space="preserve" width="1000" height="1000" data-version="2" data-id="lg_DBklTANIDGt7f0hyva" viewBox="0 0 816 816" x="250" y="250"><rect width="100%" height="100%" fill="transparent"></rect><path fill="#d4d4d4" d="M407.998 7.944c-220.59 0-400.054 179.464-400.054 400.054s179.464 400.055 400.054 400.055 400.055-179.465 400.055-400.055S628.588 7.944 407.998 7.944m0 737.878c-186.274 0-337.824-151.55-337.824-337.824S221.724 70.174 407.998 70.174s337.824 151.55 337.824 337.824-151.55 337.824-337.824 337.824"></path><path fill="#d4d4d4" d="M462.808 314.443 314.443 462.808H188.768v164.424h164.424V501.557l148.365-148.365h125.675V188.768H462.808zM298.384 572.424h-54.808v-54.808h54.808zm219.232-328.848h54.808v54.808h-54.808z"></path></svg></svg>