<svg xmlns="http://www.w3.org/2000/svg" version="1.1" xmlns:xlink="http://www.w3.org/1999/xlink" width="1500" height="170" viewBox="0 0 1500 170"><svg xml:space="preserve" width="1500" height="170" data-version="2" data-id="lg_rNEZQuBRvbFLSDI33P" viewBox="0 0 723 170" x="0" y="0"><rect width="100%" height="100%" fill="transparent"></rect><path fill="#111" d="M232.725 131.627q-12.54 0-21.78-5.11-9.24-5.12-14.35-14.6-5.12-9.49-5.12-22.36 0-9.74 2.89-17.41t8.33-13.2q5.45-5.53 13.04-8.41 7.59-2.89 16.99-2.89 12.54 0 21.78 5.11 9.24 5.12 14.36 14.52 5.11 9.41 5.11 22.28 0 9.73-2.89 17.49-2.88 7.75-8.33 13.28-5.44 5.53-13.03 8.42-7.59 2.88-17 2.88m0-15.67q6.11 0 10.73-2.97t7.17-8.83q2.56-5.86 2.56-14.6 0-13.2-5.61-19.72t-14.85-6.52q-6.1 0-10.72 2.89-4.62 2.89-7.18 8.75-2.56 5.85-2.56 14.6 0 13.03 5.61 19.72 5.61 6.68 14.85 6.68"></path><rect width="82.5" height="83.98" x="-41.25" y="-41.99" fill="none" rx="0" ry="0" transform="translate(233.22 90.14)"></rect><path fill="#111" d="M299.385 131.297q-4.95 0-7.59-2.72-2.64-2.72-2.64-7.84v-62.37q0-5.11 2.64-7.75 2.64-2.64 7.43-2.64 4.78 0 7.42 2.64 2.64 2.64 2.64 7.75v12.05l-1.81-4.95q3.3-8.25 10.23-13.04 6.93-4.78 16.5-4.78 9.73 0 16 4.62t8.75 14.19h-2.31q3.3-8.75 10.89-13.78 7.59-5.03 17.49-5.03 9.24 0 15.26 3.63t8.99 10.97q2.97 7.34 2.97 18.56v39.93q0 5.12-2.72 7.84-2.72 2.72-7.67 2.72-4.95 0-7.59-2.72-2.64-2.72-2.64-7.84v-39.1q0-9.24-3.06-13.53-3.05-4.29-10.31-4.29-8.08 0-12.7 5.69-4.62 5.69-4.62 15.76v35.47q0 5.12-2.64 7.84-2.64 2.72-7.59 2.72-4.95 0-7.68-2.72-2.72-2.72-2.72-7.84v-39.1q0-9.24-3.05-13.53-3.05-4.29-10.15-4.29-8.08 0-12.7 5.69-4.62 5.69-4.62 15.76v35.47q0 10.56-10.4 10.56"></path><rect width="123.09" height="83.65" x="-61.55" y="-41.83" fill="none" rx="0" ry="0" transform="translate(351.2 89.97)"></rect><path fill="#111" d="M441.615 131.137q-4.95 0-7.59-2.97-2.64-2.97-2.64-8.25v-60.56q0-5.44 2.64-8.33 2.64-2.89 7.59-2.89 4.95 0 7.67 2.89 2.73 2.89 2.73 8.33v60.56q0 5.28-2.64 8.25-2.64 2.97-7.76 2.97m0-98.34q-5.77 0-8.99-2.89-3.22-2.89-3.22-8 0-5.28 3.22-8.09 3.22-2.8 8.99-2.8 5.94 0 9.08 2.8 3.13 2.81 3.13 8.09 0 5.11-3.13 8-3.14 2.89-9.08 2.89"></path><rect width="24.42" height="120.12" x="-12.21" y="-60.06" fill="none" rx="0" ry="0" transform="translate(442.12 71.58)"></rect><path fill="#111" d="M503.985 131.297q-4.12 0-7.18-2.14-3.05-2.15-5.03-6.6l-26.23-60.89q-1.49-3.63-1.08-6.76.42-3.14 2.97-5.03 2.56-1.9 7.02-1.9 3.79 0 6.1 1.73 2.31 1.73 4.13 6.52l22.27 55.6h-4.95l22.94-55.77q1.81-4.62 4.2-6.35 2.4-1.73 6.52-1.73 3.63 0 5.78 1.9 2.14 1.89 2.64 4.95.49 3.05-1.16 6.68l-26.73 61.05q-1.81 4.45-4.87 6.6-3.05 2.14-7.34 2.14"></path><rect width="80.14" height="83.32" x="-40.07" y="-41.66" fill="none" rx="0" ry="0" transform="translate(504.8 90.14)"></rect><path fill="#111" d="M594.245 131.627q-13.7 0-23.6-5.11-9.9-5.12-15.26-14.52-5.36-9.41-5.36-22.28 0-12.54 5.19-21.94 5.2-9.41 14.36-14.77 9.16-5.36 20.87-5.36 8.58 0 15.43 2.8 6.85 2.81 11.71 8.09 4.87 5.28 7.43 12.79 2.56 7.5 2.56 16.91 0 2.97-2.07 4.54-2.06 1.56-5.85 1.56h-52.97v-11.88h46.37l-2.64 2.48q0-7.59-2.23-12.71-2.23-5.11-6.44-7.83-4.2-2.73-10.47-2.73-6.93 0-11.8 3.22-4.87 3.22-7.43 9.08-2.55 5.85-2.55 13.94v1.15q0 13.53 6.35 20.22 6.35 6.68 18.73 6.68 4.29 0 9.65-1.07 5.36-1.08 10.15-3.72 3.46-1.98 6.1-1.73 2.64.25 4.21 1.9 1.57 1.65 1.9 4.04.33 2.39-.91 4.87-1.24 2.47-4.21 4.29-5.77 3.63-13.28 5.36-7.51 1.73-13.94 1.73"></path><rect width="77.55" height="83.98" x="-38.77" y="-41.99" fill="none" rx="0" ry="0" transform="translate(589.3 90.14)"></rect><path fill="#111" d="M681.525 131.627q-13.69 0-23.59-5.11-9.9-5.12-15.27-14.52-5.36-9.41-5.36-22.28 0-12.54 5.2-21.94 5.2-9.41 14.35-14.77 9.16-5.36 20.88-5.36 8.58 0 15.42 2.8 6.85 2.81 11.72 8.09 4.87 5.28 7.42 12.79 2.56 7.5 2.56 16.91 0 2.97-2.06 4.54-2.06 1.56-5.86 1.56h-52.96v-11.88h46.36l-2.64 2.48q0-7.59-2.23-12.71-2.22-5.11-6.43-7.83-4.21-2.73-10.48-2.73-6.93 0-11.8 3.22-4.86 3.22-7.42 9.08-2.56 5.85-2.56 13.94v1.15q0 13.53 6.35 20.22 6.36 6.68 18.73 6.68 4.29 0 9.65-1.07 5.37-1.08 10.15-3.72 3.47-1.98 6.11-1.73t4.2 1.9q1.57 1.65 1.9 4.04.33 2.39-.91 4.87-1.23 2.47-4.2 4.29-5.78 3.63-13.29 5.36-7.5 1.73-13.94 1.73"></path><rect width="77.55" height="83.98" x="-38.77" y="-41.99" fill="none" rx="0" ry="0" transform="translate(676.58 90.14)"></rect><path fill="#111" d="M90.692 1.453C44.624 1.453 7.145 38.933 7.145 85s37.48 83.547 83.547 83.547 83.547-37.48 83.547-83.547-37.48-83.547-83.547-83.547m0 154.098c-38.901 0-70.55-31.65-70.55-70.551s31.649-70.55 70.55-70.55 70.55 31.649 70.55 70.55-31.649 70.55-70.55 70.55"></path><path fill="#111" d="M102.138 65.462 71.154 96.446H44.908v34.338h34.338v-26.246l30.984-30.984h26.246V39.216h-34.338zM67.8 119.338H56.354v-11.446H67.8zm45.784-68.676h11.446v11.446h-11.446z"></path></svg></svg>